<svg version="1.1" id="Layer_1" xmlns="http://www.w3.org/2000/svg" xmlns:xlink="http://www.w3.org/1999/xlink" x="0px" y="0px"
	 viewBox="0 0 128 128" style="enable-background:new 0 0 128 128;" xml:space="preserve">
<g>
	<path d="M49,94c-1.3,0-2.6-0.5-3.5-1.5l-25-25C19.5,66.6,19,65.3,19,64c0-1.3,0.5-2.6,1.5-3.5l25-25c2-2,5.1-2,7.1,0
		c2,2,2,5.1,0,7.1L31.1,64l21.5,21.5c2,2,2,5.1,0,7.1C51.6,93.5,50.3,94,49,94z"/>
</g>
<g>
	<path d="M79,94c-1.3,0-2.6-0.5-3.5-1.5c-2-2-2-5.1,0-7.1L96.9,64L75.5,42.5c-2-2-2-5.1,0-7.1c2-2,5.1-2,7.1,0l25,25
		c0.9,0.9,1.5,2.2,1.5,3.5c0,1.3-0.5,2.6-1.5,3.5l-25,25C81.6,93.5,80.3,94,79,94z"/>
</g>
</svg>

